Coordinates
version=1
nRows=34
nColumns=19
inDegrees=yes

Units are S.I. units (second, meters, Newtons, ...)
If the header above contains a line with 'inDegrees', this indicates whether rotational values are in degrees (yes) or radians (no).

endheader
time	pelvis_tilt	pelvis_list	pelvis_rotation	pelvis_tx	pelvis_ty	pelvis_tz	hip_flexion_r	hip_adduction_r	hip_rotation_r	knee_angle_r	knee_angle_r_beta	ankle_angle_r	hip_flexion_l	hip_adduction_l	hip_rotation_l	knee_angle_l	knee_angle_l_beta	ankle_angle_l
     11.88000000	     -4.53261569	     -5.44677276	     -4.86389126	      2.09768881	      0.97385565	      1.06226169	     32.33363393	      3.79019570	    -21.46137533	     26.88643012	      0.46925673	     -7.67058673	    -16.05583579	    -10.63448202	    -18.54223240	     57.16855410	      0.99777950	    -11.01510847
     11.88666667	     -3.98509186	     -6.31247758	     -4.54909006	      2.09802024	      0.97049753	      1.06363996	     30.94551241	      4.48593136	    -22.39327913	     27.67591288	      0.48303580	     -6.26692907	    -15.31000588	    -12.57913686	    -18.48180501	     61.82755941	      1.07909448	    -10.48261535
     11.89333333	     -3.62231286	     -7.08532044	     -4.21463649	      2.09815135	      0.96654799	      1.06480582	     29.84670991	      5.04404229	    -23.28408459	     28.93974199	      0.50509378	     -4.36457058	    -14.15374186	    -14.34156719	    -17.98779800	     66.49212664	      1.16050654	     -9.89483169
     11.90000000	     -3.30049384	     -7.84496049	     -3.84394178	      2.09793243	      0.96224437	      1.06569439	     28.83765551	      5.56995716	    -24.08516114	     30.47970748	      0.53197125	     -2.06725269	    -12.72457176	    -15.97337359	    -17.09493925	     71.15997376	      1.24197584	     -9.19943041
     11.90666667	     -3.05342440	     -8.53881579	     -3.48109342	      2.09725124	      0.95767867	      1.06626758	     27.95916568	      6.03433654	    -24.72327656	     32.21660122	      0.56228577	      0.50634296	    -10.96119097	    -17.33180470	    -15.77943306	     75.79066719	      1.32279668	     -8.44253449
     11.91333333	     -2.85272896	     -9.14468059	     -3.13091182	      2.09613090	      0.95298462	      1.06651286	     27.17009935	      6.42252405	    -25.16479028	     34.06342031	      0.59451884	      3.25685218	     -8.90954788	    -18.37366683	    -14.10752801	     80.33829706	      1.40216780	     -7.62912256
     11.92000000	     -2.72308077	     -9.64554411	     -2.80667000	      2.09444878	      0.94827540	      1.06648632	     26.50363879	      6.72554143	    -25.39967792	     35.95736014	      0.62757432	      6.05604816	     -6.54412010	    -19.06695823	    -12.13558012	     84.77566362	      1.47961446	     -6.82533446
     11.92666667	     -2.64496671	    -10.03169730	     -2.55981455	      2.09230617	      0.94364356	      1.06619857	     25.92384997	      6.92771338	    -25.41858997	     37.87269941	      0.66100330	      8.76948340	     -3.95508746	    -19.39604872	    -10.01516367	     89.04826733	      1.55418546	     -5.99679140
     11.93333333	     -2.66350796	    -10.26927129	     -2.37511239	      2.08968422	      0.93919217	      1.06570896	     25.46692668	      7.00693092	    -25.20250268	     39.74643129	      0.69370609	     11.35301472	     -1.09929152	    -19.34237445	     -7.78225569	     93.11604764	      1.62518162	     -5.24503402
     11.94000000	     -2.72155151	    -10.40555875	     -2.24111133	      2.08668022	      0.93503297	      1.06503856	     25.03651482	      6.99890072	    -24.81940868	     41.51311785	      0.72454059	     13.70161524	      1.90085892	    -18.99856868	     -5.54672419	     96.92407401	      1.69164422	     -4.51130668
     11.94666667	     -2.86322160	    -10.44024116	     -2.15459349	      2.08341913	      0.93119246	      1.06426597	     24.65060321	      6.90676868	    -24.28820720	     43.14491228	      0.75302077	     15.80569996	      5.07068941	    -18.41888730	     -3.36996267	    100.43472412	      1.75291662	     -3.89435604
     11.95333333	     -3.01552210	    -10.37609569	     -2.03301270	      2.08000217	      0.92782146	      1.06338875	     24.19093076	      6.71844648	    -23.68921734	     44.56929148	      0.77788088	     17.65918688	      8.32509240	    -17.62138924	     -1.23188864	    103.59708950	      1.80811031	     -3.34737363
     11.96000000	     -3.23027808	    -10.22400864	     -1.91682436	      2.07656006	      0.92485068	      1.06252988	     23.69153729	      6.45973517	    -23.03311464	     45.78229332	      0.79905176	     19.25591601	     11.66774416	    -16.68488082	      0.76008085	    106.37253479	      1.85655097	     -2.88747030
     11.96666667	     -3.39846446	     -9.99140205	     -1.71707680	      2.07323448	      0.92247784	      1.06164235	     22.98896501	      6.11453575	    -22.42026733	     46.72455851	      0.81549739	     20.59519401	     14.96969069	    -15.60671066	      2.64753684	    108.71029289	      1.89735254	     -2.52664116
     11.97333333	     -3.62986524	     -9.66221695	     -1.49967413	      2.07013193	      0.92057010	      1.06090440	     22.18648363	      5.70623937	    -21.82129479	     47.38586372	      0.82703934	     21.77038579	     18.30456415	    -14.45155749	      4.31626786	    110.59027865	      1.93016448	     -2.27887719
     11.98000000	     -3.28031560	     -9.38317356	     -1.54444833	      2.06761046	      0.92009627	      1.06076901	     20.49359003	      5.57554915	    -20.85680914	     47.58752041	      0.83055891	     22.72127322	     20.69772177	    -13.62393554	      5.30315022	    111.84602662	      1.95208142	     -1.98368964
     11.98666667	     -4.11297445	     -8.76963119	     -0.93238995	      2.06499063	      0.91849197	      1.05986211	     20.02754000	      4.74544394	    -20.80930750	     47.79851326	      0.83424143	     23.48844612	     24.76236169	    -11.96901773	      6.98181821	    112.88813416	      1.97026963	     -2.06291427
     11.99333333	     -4.03556548	     -8.18239933	     -0.51912539	      2.06311613	      0.91880365	      1.05944932	     18.28251732	      4.14158397	    -20.49260506	     47.50311592	      0.82908578	     24.04738903	     27.42599222	    -10.64360797	      7.92009556	    113.23479830	      1.97632006	     -2.05174164
     12.00000000	     -4.10334714	     -7.50794500	     -0.11320664	      2.06166413	      0.91957779	      1.05929504	     16.51280205	      3.51011838	    -20.23923570	     46.90395896	      0.81862852	     24.36985330	     30.09348955	     -9.31809248	      8.56597468	    113.10838601	      1.97411375	     -2.08874580
     12.00666667	     -4.23745198	     -6.86476485	      0.01365640	      2.06077293	      0.92096948	      1.05969626	     14.63466925	      3.09468577	    -19.70410715	     45.92857122	      0.80160479	     24.37052214	     32.55753494	     -8.34571750	      8.69703719	    112.50267528	      1.96354210	     -1.95461342
     12.01333333	     -4.31157421	     -5.92587192	      0.67881762	      2.06017501	      0.92296628	      1.05936038	     12.53893674	      2.13431534	    -19.96689975	     44.80371976	      0.78197243	     24.08421243	     34.89952666	     -6.74453238	      8.94004642	    111.45014502	      1.94517198	     -2.06457777
     12.02000000	     -4.46405061	     -5.05543879	      1.01407475	      2.06019262	      0.92557014	      1.05957696	     10.36852099	      1.43864157	    -19.90021542	     43.28990663	      0.75555140	     23.37166475	     36.99979049	     -5.58166005	      8.67209531	    109.96020801	      1.91916768	     -1.93873514
     12.02666667	     -4.34812973	     -4.11189402	      1.37186643	      2.06070834	      0.92909916	      1.05978715	      7.77230361	      0.70095229	    -19.93064146	     41.49286142	      0.72418705	     22.26426135	     38.53010015	     -4.47902354	      8.13627820	    108.02129197	      1.88532721	     -1.64701711
     12.03333333	     -5.11006853	     -3.34679565	      1.45135730	      2.06171131	      0.93183685	      1.06031112	      6.10449783	      0.18847710	    -19.79335676	     39.56313525	      0.69050697	     20.86759304	     40.85696410	     -3.86856569	      7.28249721	    105.85863851	      1.84758178	     -1.25673687
     12.04000000	     -4.51097610	     -2.30874789	      1.82060907	      2.06319501	      0.93724756	      1.06038529	      2.73851249	     -0.57634283	    -20.01540688	     37.10982234	      0.64768858	     18.37000450	     41.31433025	     -2.85023949	      6.36954785	    103.08154001	      1.79911227	     -0.99076985
     12.04666667	     -4.43671525	     -1.47152904	      1.87464286	      2.06522571	      0.94220656	      1.06082876	     -0.07059032	     -1.04551007	    -19.87506992	     34.45120735	      0.60128700	     15.65008261	     42.12159953	     -2.38981651	      5.14826236	    100.10095707	      1.74709129	     -0.41192113
     12.05333333	     -4.50560216	     -0.70170886	      1.86324967	      2.06767020	      0.94721795	      1.06122726	     -2.72290850	     -1.47564764	    -19.80665691	     31.67746433	      0.55287605	     12.37298839	     42.88407430	     -2.12855506	      3.76278603	     96.84636626	      1.69028796	      0.05638212
     12.06000000	     -4.56668571	      0.03124873	      1.77009277	      2.07055669	      0.95240042	      1.06165886	     -5.38748164	     -1.85810966	    -19.65426616	     28.74291396	      0.50165849	      8.62272167	     43.39645061	     -2.03946859	      2.19873192	     93.33182001	      1.62894756	      0.57181278
     12.06666667	     -4.61743776	      0.70296068	      1.60386100	      2.07373236	      0.95763703	      1.06210771	     -8.01719013	     -2.19409032	    -19.46011625	     25.73529535	      0.44916564	      4.47233067	     43.68863284	     -2.10982074	      0.49474140	     89.58290621	      1.56351667	      0.98198559
     12.07333333	     -4.72941703	      1.27697276	      1.41867423	      2.07715995	      0.96268955	      1.06250685	    -10.51953643	     -2.44899418	    -19.25496534	     22.71505713	      0.39645254	      0.06027138	     43.86999920	     -2.30769130	     -1.27771875	     85.64569420	      1.49479935	      1.30916181
     12.08000000	     -4.79335477	      1.86664212	      1.13326794	      2.08072549	      0.96760052	      1.06293435	    -12.93368393	     -2.79141292	    -18.99813311	     19.86338785	      0.34668152	     -4.41456288	     43.79531560	     -2.57231175	     -3.26415928	     81.50788765	      1.42258101	      1.55181272
     12.08666667	     -4.93625943	      2.36709950	      0.86775147	      2.08430105	      0.97208676	      1.06328935	    -15.09858386	     -3.09732364	    -18.78812204	     17.26509299	      0.30133272	     -8.78132448	     43.67128094	     -2.87110681	     -5.26545754	     77.23188784	      1.34795073	      1.65702550
     12.09333333	     -5.10814876	      2.83768603	      0.61873485	      2.08780903	      0.97614845	      1.06352892	    -17.02119849	     -3.44817252	    -18.68195487	     15.06446828	      0.26292457	    -12.81867855	     43.44162561	     -3.11709524	     -7.29883251	     72.81510544	      1.27086334	      1.61827543
     12.10000000	     -5.30373682	      3.24760699	      0.40732234	      2.09109642	      0.97974388	      1.06360650	    -18.64204926	     -3.82387283	    -18.70344836	     13.42880747	      0.23437690	    -16.35082501	     43.13321789	     -3.28192166	     -9.27925043	     68.28402565	      1.19178107	      1.44270682
